<svg viewBox="0 0 100 100" fill="none" xmlns="http://www.w3.org/2000/svg">
  <circle cx="50" cy="50" r="50" fill="#024555"/>
  <g transform="translate(2.5, 30) scale(0.07, 0.07)">
    <path d="M21.8164 113.558C43.8735 99.384 73.2428 105.776 87.4141 127.835L277.579 423.849C291.75 445.909 285.357 475.282 263.3 489.457C241.243 503.631 211.874 497.238 197.703 475.18L7.53808 179.165C-6.63285 157.106 -0.240195 127.733 21.8164 113.558ZM632.588 21.8172C646.759 -0.241962 676.128 -6.6336 698.186 7.54087C720.242 21.7154 726.635 51.0883 712.464 73.1473L454.191 475.18C444.967 489.539 429.302 497.257 413.406 496.987C397.503 497.265 381.828 489.547 372.599 475.181L249.364 283.351C235.193 261.292 241.586 231.92 263.643 217.745C285.7 203.571 315.069 209.962 329.24 232.021L413.395 363.017L632.588 21.8172Z" fill="#BDF2B8"/>
    <path d="M1160.61 496C1064.12 496 1022.96 418.985 989.906 357.088C983.895 345.835 977.68 334.201 971.313 323.203C964.171 310.869 957.588 298.548 951.221 286.622C916.667 221.953 898.786 195.62 860.393 195.62C802.595 195.62 755.574 242.666 755.574 300.494C755.574 358.322 802.595 405.367 860.393 405.367C875.745 405.367 886.7 402.138 900.476 395.767C923.186 385.277 950.09 395.183 960.587 417.904C971.072 440.626 961.172 467.544 938.462 478.046C912.689 489.96 888.962 496 860.393 496C752.651 496 665 408.304 665 300.506C665 192.708 752.651 105.013 860.393 105.013C956.876 105.013 998.027 182.028 1031.09 243.912C1037.11 255.165 1043.32 266.799 1049.69 277.797C1056.83 290.131 1063.41 302.452 1069.78 314.366C1104.33 379.034 1122.23 405.367 1160.61 405.367C1218.4 405.367 1265.43 358.322 1265.43 300.494C1265.43 242.666 1218.4 195.62 1160.61 195.62C1145.34 195.62 1134.48 198.812 1120.77 205.105C1098.04 215.544 1071.15 205.576 1060.72 182.829C1050.28 160.082 1060.25 133.189 1082.98 122.75C1108.63 110.976 1132.2 105 1160.61 105C1268.35 105 1356 192.696 1356 300.494C1356 408.292 1268.35 495.987 1160.61 495.987V496Z" fill="#BDF2B8"/>
  </g>
</svg>
